<?xml version="1.0" encoding="UTF-8" standalone="no"?>
<svg
   viewBox="0 0 64 64"
   version="1.1"
   id="svg854"
   sodipodi:docname="warning.svg"
   inkscape:version="1.1.2 (b8e25be833, 2022-02-05)"
   xmlns:inkscape="http://www.inkscape.org/namespaces/inkscape"
   xmlns:sodipodi="http://sodipodi.sourceforge.net/DTD/sodipodi-0.dtd"
   xmlns="http://www.w3.org/2000/svg"
   xmlns:svg="http://www.w3.org/2000/svg">
  <sodipodi:namedview
     id="namedview856"
     pagecolor="#ffffff"
     bordercolor="#666666"
     borderopacity="1.0"
     inkscape:pageshadow="2"
     inkscape:pageopacity="0.0"
     inkscape:pagecheckerboard="0"
     showgrid="false"
     inkscape:zoom="28.5625"
     inkscape:cx="32"
     inkscape:cy="32"
     inkscape:window-width="3840"
     inkscape:window-height="2066"
     inkscape:window-x="-11"
     inkscape:window-y="-11"
     inkscape:window-maximized="1"
     inkscape:current-layer="g852" />
  <defs
     id="defs846">
    <linearGradient
       gradientTransform="matrix(1.31117 0 0 1.30239 737.39 159.91)"
       gradientUnits="userSpaceOnUse"
       id="0"
       y2="-.599"
       x2="0"
       y1="45.47">
      <stop
         stop-color="#ffc515"
         id="stop841" />
      <stop
         offset="1"
         stop-color="#ffd55b"
         id="stop843" />
    </linearGradient>
  </defs>
  <g
     transform="matrix(.85714 0 0 .85714-627.02-130.8)"
     id="g852">
    <path
       d="m-26.309 18.07c-1.18 0-2.135.968-2.135 2.129v12.82c0 1.176.948 2.129 2.135 2.129 1.183 0 2.135-.968 2.135-2.129v-12.82c0-1.176-.946-2.129-2.135-2.129zm0 21.348c-1.18 0-2.135.954-2.135 2.135 0 1.18.954 2.135 2.135 2.135 1.181 0 2.135-.954 2.135-2.135 0-1.18-.952-2.135-2.135-2.135z"
       transform="matrix(1.05196 0 0 1.05196 796.53 161.87)"
       fill="#000"
       stroke="#40330d"
       fill-opacity=".75"
       id="path850"
       style="fill:#2b0000" />
  </g>
</svg>
