<?xml version="1.0" encoding="UTF-8" standalone="no"?><!DOCTYPE svg PUBLIC "-//W3C//DTD SVG 1.1//EN" "http://www.w3.org/Graphics/SVG/1.1/DTD/svg11.dtd"><svg width="100%" height="100%" viewBox="0 0 366 366" version="1.1" xmlns="http://www.w3.org/2000/svg" xmlns:xlink="http://www.w3.org/1999/xlink" xml:space="preserve" xmlns:serif="http://www.serif.com/" style="fill-rule:evenodd;clip-rule:evenodd;stroke-linejoin:round;stroke-miterlimit:2;"><g id="Layer-1" serif:id="Layer 1"><path d="M274.473,300.893l-0.264,2.606l-0.759,2.44l-1.194,2.2l-1.574,1.911l-1.907,1.579l-2.201,1.201l-2.444,0.763l-2.612,0.267l-111.57,-0l-2.611,-0.267l-2.442,-0.764l-2.198,-1.199l-1.906,-1.577l-1.574,-1.908l-1.196,-2.199l-0.762,-2.442l-0.266,-2.611l0,-164.409l0.267,-2.611l0.763,-2.441l1.198,-2.197l1.574,-1.905l1.905,-1.574l2.197,-1.198l2.44,-0.763l2.611,-0.266l76.336,-0c4.85,-0 11.611,2.806 15.032,6.227l26.929,26.93c3.422,3.421 6.228,10.198 6.228,15.032l0,129.175Zm-44.767,-138.078c-0,3.233 2.646,5.869 5.88,5.869l23.485,-0c3.233,-0 3.997,-1.872 1.716,-4.153l-26.929,-26.918c-2.281,-2.292 -4.152,-1.517 -4.152,1.716l-0,23.486Z"/><path d="M180.221,39.198l16.1,-0l2.611,0.266l2.441,0.764l2.197,1.197l1.905,1.574l1.574,1.906l1.198,2.196l0.763,2.441l0.267,2.611l-0,64.289l-59.329,-0c-0.24,-0 -0.48,0.012 -0.719,0.037l-2.611,0.266c-0.474,0.048 -0.942,0.144 -1.396,0.287l-2.441,0.763c-0.442,0.138 -0.869,0.32 -1.276,0.541l-2.197,1.198c-0.397,0.216 -0.773,0.471 -1.122,0.759l-1.905,1.574c-0.346,0.286 -0.664,0.604 -0.949,0.949l-1.575,1.906c-0.288,0.348 -0.542,0.724 -0.759,1.121l-1.197,2.197c-0.222,0.407 -0.403,0.835 -0.542,1.277l-0.763,2.44c-0.142,0.455 -0.238,0.922 -0.286,1.396l-0.267,2.611c-0.024,0.239 -0.037,0.479 -0.037,0.72l0,93.045l-45.155,-0l-2.611,-0.267l-2.441,-0.764l-2.198,-1.199l-1.906,-1.576l-1.575,-1.908l-1.196,-2.2l-0.762,-2.442l-0.266,-2.61l0,-164.41l0.267,-2.611l0.763,-2.441l1.198,-2.196l1.574,-1.906l1.905,-1.574l2.197,-1.197l2.44,-0.764l2.611,-0.266l16.1,-0l0,24.094c0,3.914 3.173,7.087 7.087,7.087l65.197,-0c3.914,-0 7.086,-3.173 7.086,-7.087l0,-24.094Z"/><path d="M173.135,32.678l-0,27.213c-0,1.877 -1.524,3.401 -3.402,3.401l-58.393,0c-1.878,0 -3.402,-1.524 -3.402,-3.401l-0,-27.213c-0,-1.877 1.524,-3.401 3.402,-3.401l58.393,-0c1.878,-0 3.402,1.524 3.402,3.401Z"/></g></svg>