<?xml version="1.0" encoding="UTF-8" standalone="no"?>
<!-- Generator: Adobe Illustrator 19.0.0, SVG Export Plug-In . SVG Version: 6.00 Build 0)  -->

<svg
   version="1.1"
   id="Hexels_SVG_Export"
   x="0px"
   y="0px"
   viewBox="-80 172 260.39044 369.13156"
   xml:space="preserve"
   sodipodi:docname="left_hand.svg"
   inkscape:version="1.1.2 (b8e25be833, 2022-02-05)"
   width="260.39044"
   height="369.13156"
   xmlns:inkscape="http://www.inkscape.org/namespaces/inkscape"
   xmlns:sodipodi="http://sodipodi.sourceforge.net/DTD/sodipodi-0.dtd"
   xmlns="http://www.w3.org/2000/svg"
   xmlns:svg="http://www.w3.org/2000/svg"><defs
   id="defs856" /><sodipodi:namedview
   id="namedview854"
   pagecolor="#ffffff"
   bordercolor="#666666"
   borderopacity="1.0"
   inkscape:pageshadow="2"
   inkscape:pageopacity="0.0"
   inkscape:pagecheckerboard="0"
   showgrid="false"
   inkscape:zoom="0.71810622"
   inkscape:cx="669.81734"
   inkscape:cy="756.15554"
   inkscape:window-width="3840"
   inkscape:window-height="2066"
   inkscape:window-x="-11"
   inkscape:window-y="-11"
   inkscape:window-maximized="1"
   inkscape:current-layer="Hexels_SVG_Export" />
<style
   type="text/css"
   id="style841">
	.st0{stroke:#000000;stroke-width:3.000000e-002;}
</style>
<g
   id="Root"
   transform="rotate(-54.2,66.993423,461.1888)">
	<g
   id="Layer_7">
		<path
   d="m 146.1,222.9 -63,49.3 6.2,7.9 -23.6,18.5 6.2,7.9 -15.9,12.2 6.2,7.9 -7.9,6.2 6.2,7.9 -15.8,12.3 6.2,7.9 -7.9,6.2 6.2,7.9 -7.9,6.2 6.2,7.9 -7.9,6.2 6.2,7.9 -7.9,6.2 6.2,7.9 -7.9,6.2 6.2,7.9 -7.9,6.2 6.2,7.9 -7.9,6.2 6.2,7.9 -7.9,6.2 6.2,7.9 -7.9,6.2 6.2,7.9 -7.9,6.2 6.2,7.9 -7.9,6.2 6.2,7.9 -7.9,6.2 6.2,7.9 -7.9,6.2 24.6,31.5 7.9,-6.2 6.2,7.9 7.9,-6.2 6.2,7.9 7.9,-6.2 6.2,7.9 7.9,-6.2 6.2,7.9 47.3,-36.9 -6.2,-7.9 7.9,-6.2 -6.2,-7.9 7.9,-6.2 -6.2,-7.9 7.9,-6.2 -6.2,-7.9 7.9,-6.2 -6.2,-7.9 7.9,-6.2 6.2,7.9 7.9,-6.2 6.2,7.9 7.9,-6.2 6.2,7.9 15.8,-12.3 6.2,7.9 31.5,-24.6 -6.2,-7.9 7.9,-6.2 -6.2,-7.9 7.9,-6.2 -18.5,-23.6 -7.9,6.2 -6.2,-7.9 15.8,-12.3 18.5,23.6 39.4,-30.8 -6.2,-7.9 15.8,-12.3 -6.2,-7.9 7.9,-6.2 -6.2,-7.9 7.9,-6.2 -6.2,-7.9 7.9,-6.2 -18.5,-23.6 7.9,-6.2 -43.1,-55.2 -7.9,6.2 -6.2,-7.9 -7.9,6.2 -6.2,-7.9 -7.9,6.2 -6.2,-7.9 -7.9,6.2 -6.2,-7.9 -7.9,6.2 -6.2,-7.9 -7.9,6.2 -6.2,-7.9 -15.8,12.3 z m -50.7,65 70.9,-55.4 6.2,7.9 7.9,-6.2 6.2,7.9 7.9,-6.2 6.2,7.9 -7.9,6.2 6.2,7.9 15.8,-12.3 6.2,7.9 7.9,-6.2 6.2,7.9 7.9,-6.2 12.3,15.8 7.9,-6.2 12.3,15.8 -7.9,6.2 -6.2,-7.9 -7.9,6.2 -6.2,-7.9 -7.9,6.2 -6.2,-7.9 -15.8,12.3 6.2,7.9 7.9,-6.2 6.2,7.9 7.9,-6.2 6.2,7.9 7.9,-6.2 6.2,7.9 7.9,-6.2 12.3,15.8 -16.1,12.2 18.5,23.6 -31.5,24.6 -6.2,-7.9 -7.9,6.2 -6.2,-7.9 -39.4,30.8 6.2,7.9 -23.6,18.5 6.2,7.9 -15.8,12.3 6.2,7.9 7.9,-6.2 6.2,7.9 31.5,-24.6 12.3,15.8 -31.5,24.6 -6.2,-7.9 -7.9,6.2 -6.2,-7.9 -7.9,6.2 -6.2,-7.9 -7.9,6.2 -6.2,-7.9 -15.7,12.2 6.2,7.9 -39.4,30.8 -6.2,-7.9 -7.9,6.2 -6.2,-7.9 -7.9,6.2 -12.3,-15.8 -7.9,6.2 -6.2,-7.9 7.9,-6.2 -6.2,-7.9 7.9,-6.2 -6.2,-7.9 7.9,-6.2 -6.2,-7.9 7.9,-6.2 18.5,23.6 7.9,-6.2 -30.8,-39.4 7.9,-6.2 18.6,24 7.9,-6.2 -30.8,-39.4 7.9,-6.2 18.5,23.7 7.9,-6.2 -30.8,-39.4 15.8,-12.3 -6.2,-7.9 7.9,-6.2 -6.2,-7.9 23.6,-18.5 z m -41.6,222.8 7.9,-6.2 12.3,15.8 7.9,-6.2 6.2,7.9 7.9,-6.2 6.2,7.9 31.5,-24.6 6.2,7.9 -15.9,12.4 6.2,7.9 -31.5,24.6 -6.2,-7.9 -7.9,6.2 -6.2,-7.9 -7.9,6.2 -18.5,-23.6 7.9,-6.2 z"
   id="path843" />
		<polygon
   class="st0"
   points="186.5,242.1 178.6,248.2 184.7,256.1 192.6,249.9 "
   id="polygon845" />
		<path
   d="m 211.1,273.6 -15.8,12.3 6.2,7.9 15.8,-12.3 z"
   id="path847" />
		<path
   d="m 227.9,311.2 -23.6,18.5 6.2,7.9 15.8,-12.3 6.2,7.9 15.8,-12.3 6.2,7.9 15.8,-12.3 -6.2,-7.9 -7.9,6.2 -6.2,-7.9 -16,12.2 z"
   id="path849" />
	</g>
</g>
</svg>
